<mxfile host="65bd71144e">
    <diagram id="uK6g16ApXt42Dru-7xoq" name="Page-1">
        <mxGraphModel dx="1673" dy="609" grid="1" gridSize="10" guides="1" tooltips="1" connect="1" arrows="1" fold="1" page="1" pageScale="1" pageWidth="827" pageHeight="1169" math="0" shadow="0">
            <root>
                <mxCell id="0"/>
                <mxCell id="1" parent="0"/>
                <mxCell id="2" value="Formateur" style="swimlane;fontStyle=1;align=center;verticalAlign=middle;childLayout=stackLayout;horizontal=1;startSize=29;horizontalStack=0;resizeParent=1;resizeParentMax=0;resizeLast=0;collapsible=0;marginBottom=0;html=1;" vertex="1" parent="1">
                    <mxGeometry x="-790" y="130" width="140" height="110" as="geometry"/>
                </mxCell>
                <mxCell id="3" value="id" style="text;html=1;strokeColor=none;fillColor=none;align=center;verticalAlign=middle;spacingLeft=4;spacingRight=4;overflow=hidden;rotatable=0;points=[[0,0.5],[1,0.5]];portConstraint=eastwest;" vertex="1" parent="2">
                    <mxGeometry y="29" width="140" height="25" as="geometry"/>
                </mxCell>
                <mxCell id="4" value="nom" style="text;html=1;strokeColor=none;fillColor=none;align=center;verticalAlign=middle;spacingLeft=4;spacingRight=4;overflow=hidden;rotatable=0;points=[[0,0.5],[1,0.5]];portConstraint=eastwest;" vertex="1" parent="2">
                    <mxGeometry y="54" width="140" height="25" as="geometry"/>
                </mxCell>
                <mxCell id="5" value="&lt;div&gt;email&lt;/div&gt;" style="text;html=1;strokeColor=none;fillColor=none;align=center;verticalAlign=middle;spacingLeft=4;spacingRight=4;overflow=hidden;rotatable=0;points=[[0,0.5],[1,0.5]];portConstraint=eastwest;" vertex="1" parent="2">
                    <mxGeometry y="79" width="140" height="31" as="geometry"/>
                </mxCell>
                <mxCell id="6" style="edgeStyle=none;html=1;endArrow=none;endFill=0;exitX=0.048;exitY=0.258;exitDx=0;exitDy=0;exitPerimeter=0;entryX=0.639;entryY=1.087;entryDx=0;entryDy=0;entryPerimeter=0;startArrow=none;" edge="1" parent="1" source="82" target="25">
                    <mxGeometry relative="1" as="geometry">
                        <mxPoint x="-230" y="250" as="targetPoint"/>
                        <mxPoint x="-160" y="290" as="sourcePoint"/>
                        <Array as="points">
                            <mxPoint x="-200" y="268.5"/>
                        </Array>
                    </mxGeometry>
                </mxCell>
                <mxCell id="7" style="edgeStyle=none;html=1;endArrow=none;endFill=0;entryX=1;entryY=0.5;entryDx=0;entryDy=0;startArrow=none;" edge="1" parent="1" source="78" target="5">
                    <mxGeometry relative="1" as="geometry">
                        <mxPoint x="-530" y="250" as="sourcePoint"/>
                        <mxPoint x="-660" y="220" as="targetPoint"/>
                        <Array as="points">
                            <mxPoint x="-620" y="230"/>
                        </Array>
                    </mxGeometry>
                </mxCell>
                <mxCell id="8" value="est suivi&lt;br&gt;-------------&lt;br&gt;date_inscription&lt;br&gt;" style="ellipse;whiteSpace=wrap;html=1;align=center;" vertex="1" parent="1">
                    <mxGeometry x="-170" y="270" width="70" height="70" as="geometry"/>
                </mxCell>
                <mxCell id="10" style="edgeStyle=none;html=1;endArrow=none;endFill=0;exitX=1.002;exitY=0.047;exitDx=0;exitDy=0;exitPerimeter=0;startArrow=none;entryX=0;entryY=0.5;entryDx=0;entryDy=0;" edge="1" parent="1" source="9" target="17">
                    <mxGeometry relative="1" as="geometry">
                        <mxPoint x="-640" y="180" as="sourcePoint"/>
                        <mxPoint x="-530" y="180" as="targetPoint"/>
                    </mxGeometry>
                </mxCell>
                <mxCell id="12" value="Categorie" style="swimlane;fontStyle=1;align=center;verticalAlign=middle;childLayout=stackLayout;horizontal=1;startSize=29;horizontalStack=0;resizeParent=1;resizeParentMax=0;resizeLast=0;collapsible=0;marginBottom=0;html=1;" vertex="1" parent="1">
                    <mxGeometry x="-40" y="51" width="100" height="79" as="geometry"/>
                </mxCell>
                <mxCell id="13" value="id" style="text;html=1;strokeColor=none;fillColor=none;align=center;verticalAlign=middle;spacingLeft=4;spacingRight=4;overflow=hidden;rotatable=0;points=[[0,0.5],[1,0.5]];portConstraint=eastwest;" vertex="1" parent="12">
                    <mxGeometry y="29" width="100" height="25" as="geometry"/>
                </mxCell>
                <mxCell id="14" value="nom" style="text;html=1;strokeColor=none;fillColor=none;align=center;verticalAlign=middle;spacingLeft=4;spacingRight=4;overflow=hidden;rotatable=0;points=[[0,0.5],[1,0.5]];portConstraint=eastwest;" vertex="1" parent="12">
                    <mxGeometry y="54" width="100" height="25" as="geometry"/>
                </mxCell>
                <mxCell id="15" style="edgeStyle=none;html=1;exitX=0;exitY=0.5;exitDx=0;exitDy=0;entryX=0.02;entryY=0.007;entryDx=0;entryDy=0;entryPerimeter=0;endArrow=none;endFill=0;" edge="1" parent="12" source="13" target="13">
                    <mxGeometry relative="1" as="geometry"/>
                </mxCell>
                <mxCell id="96" value="" style="edgeStyle=none;html=1;endArrow=none;endFill=0;exitX=1.04;exitY=0.36;exitDx=0;exitDy=0;exitPerimeter=0;" edge="1" parent="1" source="17" target="75">
                    <mxGeometry relative="1" as="geometry"/>
                </mxCell>
                <mxCell id="17" value="crée&lt;br&gt;&lt;br&gt;" style="ellipse;whiteSpace=wrap;html=1;align=center;" vertex="1" parent="1">
                    <mxGeometry x="-540" y="124.5" width="50" height="50" as="geometry"/>
                </mxCell>
                <mxCell id="21" value="Cours" style="swimlane;fontStyle=1;align=center;verticalAlign=middle;childLayout=stackLayout;horizontal=1;startSize=29;horizontalStack=0;resizeParent=1;resizeParentMax=0;resizeLast=0;collapsible=0;marginBottom=0;html=1;" vertex="1" parent="1">
                    <mxGeometry x="-340" y="91" width="140" height="129" as="geometry"/>
                </mxCell>
                <mxCell id="22" value="id" style="text;html=1;strokeColor=none;fillColor=none;align=center;verticalAlign=middle;spacingLeft=4;spacingRight=4;overflow=hidden;rotatable=0;points=[[0,0.5],[1,0.5]];portConstraint=eastwest;" vertex="1" parent="21">
                    <mxGeometry y="29" width="140" height="25" as="geometry"/>
                </mxCell>
                <mxCell id="23" value="titre" style="text;html=1;strokeColor=none;fillColor=none;align=center;verticalAlign=middle;spacingLeft=4;spacingRight=4;overflow=hidden;rotatable=0;points=[[0,0.5],[1,0.5]];portConstraint=eastwest;" vertex="1" parent="21">
                    <mxGeometry y="54" width="140" height="25" as="geometry"/>
                </mxCell>
                <mxCell id="24" value="date_debut" style="text;html=1;strokeColor=none;fillColor=none;align=center;verticalAlign=middle;spacingLeft=4;spacingRight=4;overflow=hidden;rotatable=0;points=[[0,0.5],[1,0.5]];portConstraint=eastwest;" vertex="1" parent="21">
                    <mxGeometry y="79" width="140" height="25" as="geometry"/>
                </mxCell>
                <mxCell id="25" value="date_fin" style="text;html=1;strokeColor=none;fillColor=none;align=center;verticalAlign=middle;spacingLeft=4;spacingRight=4;overflow=hidden;rotatable=0;points=[[0,0.5],[1,0.5]];portConstraint=eastwest;" vertex="1" parent="21">
                    <mxGeometry y="104" width="140" height="25" as="geometry"/>
                </mxCell>
                <mxCell id="27" style="html=1;endArrow=none;endFill=0;exitX=0.779;exitY=1.059;exitDx=0;exitDy=0;exitPerimeter=0;entryX=0;entryY=1;entryDx=0;entryDy=0;startArrow=none;" edge="1" parent="1" source="88" target="73">
                    <mxGeometry relative="1" as="geometry">
                        <mxPoint x="-480" y="439" as="sourcePoint"/>
                        <mxPoint x="-440" y="409" as="targetPoint"/>
                        <Array as="points"/>
                    </mxGeometry>
                </mxCell>
                <mxCell id="29" value="a accès&lt;br&gt;&lt;br&gt;" style="ellipse;whiteSpace=wrap;html=1;align=center;" vertex="1" parent="1">
                    <mxGeometry x="-530" y="220" width="70" height="60" as="geometry"/>
                </mxCell>
                <mxCell id="32" style="edgeStyle=none;html=1;endArrow=none;endFill=0;entryX=1;entryY=0.5;entryDx=0;entryDy=0;startArrow=none;" edge="1" parent="1" source="84" target="69">
                    <mxGeometry relative="1" as="geometry">
                        <mxPoint x="-240" y="343" as="targetPoint"/>
                        <mxPoint x="-85" y="361" as="sourcePoint"/>
                        <Array as="points"/>
                    </mxGeometry>
                </mxCell>
                <mxCell id="63" value="Examen" style="swimlane;fontStyle=1;align=center;verticalAlign=middle;childLayout=stackLayout;horizontal=1;startSize=29;horizontalStack=0;resizeParent=1;resizeParentMax=0;resizeLast=0;collapsible=0;marginBottom=0;html=1;" vertex="1" parent="1">
                    <mxGeometry x="-245" y="600" width="110" height="110" as="geometry"/>
                </mxCell>
                <mxCell id="64" value="id" style="text;html=1;strokeColor=none;fillColor=none;align=center;verticalAlign=middle;spacingLeft=4;spacingRight=4;overflow=hidden;rotatable=0;points=[[0,0.5],[1,0.5]];portConstraint=eastwest;" vertex="1" parent="63">
                    <mxGeometry y="29" width="110" height="25" as="geometry"/>
                </mxCell>
                <mxCell id="65" value="nom" style="text;html=1;strokeColor=none;fillColor=none;align=center;verticalAlign=middle;spacingLeft=4;spacingRight=4;overflow=hidden;rotatable=0;points=[[0,0.5],[1,0.5]];portConstraint=eastwest;" vertex="1" parent="63">
                    <mxGeometry y="54" width="110" height="25" as="geometry"/>
                </mxCell>
                <mxCell id="66" value="&lt;div&gt;prenom&lt;/div&gt;" style="text;html=1;strokeColor=none;fillColor=none;align=center;verticalAlign=middle;spacingLeft=4;spacingRight=4;overflow=hidden;rotatable=0;points=[[0,0.5],[1,0.5]];portConstraint=eastwest;" vertex="1" parent="63">
                    <mxGeometry y="79" width="110" height="31" as="geometry"/>
                </mxCell>
                <mxCell id="67" value="Eleve" style="swimlane;fontStyle=1;align=center;verticalAlign=middle;childLayout=stackLayout;horizontal=1;startSize=29;horizontalStack=0;resizeParent=1;resizeParentMax=0;resizeLast=0;collapsible=0;marginBottom=0;html=1;" vertex="1" parent="1">
                    <mxGeometry x="-310" y="360" width="140" height="110" as="geometry"/>
                </mxCell>
                <mxCell id="68" value="id" style="text;html=1;strokeColor=none;fillColor=none;align=center;verticalAlign=middle;spacingLeft=4;spacingRight=4;overflow=hidden;rotatable=0;points=[[0,0.5],[1,0.5]];portConstraint=eastwest;" vertex="1" parent="67">
                    <mxGeometry y="29" width="140" height="25" as="geometry"/>
                </mxCell>
                <mxCell id="69" value="nom" style="text;html=1;strokeColor=none;fillColor=none;align=center;verticalAlign=middle;spacingLeft=4;spacingRight=4;overflow=hidden;rotatable=0;points=[[0,0.5],[1,0.5]];portConstraint=eastwest;" vertex="1" parent="67">
                    <mxGeometry y="54" width="140" height="25" as="geometry"/>
                </mxCell>
                <mxCell id="70" value="&lt;div&gt;email&lt;/div&gt;" style="text;html=1;strokeColor=none;fillColor=none;align=center;verticalAlign=middle;spacingLeft=4;spacingRight=4;overflow=hidden;rotatable=0;points=[[0,0.5],[1,0.5]];portConstraint=eastwest;" vertex="1" parent="67">
                    <mxGeometry y="79" width="140" height="31" as="geometry"/>
                </mxCell>
                <mxCell id="71" style="edgeStyle=none;html=1;endArrow=none;endFill=0;exitX=-0.021;exitY=0.82;exitDx=0;exitDy=0;exitPerimeter=0;entryX=1;entryY=0.5;entryDx=0;entryDy=0;startArrow=none;" edge="1" parent="1" source="80" target="29">
                    <mxGeometry relative="1" as="geometry">
                        <mxPoint x="-450" y="250" as="targetPoint"/>
                        <mxPoint x="-305" y="258" as="sourcePoint"/>
                        <Array as="points"/>
                    </mxGeometry>
                </mxCell>
                <mxCell id="73" value="participe&lt;br&gt;-----------------&lt;br&gt;date_examen" style="ellipse;whiteSpace=wrap;html=1;align=center;" vertex="1" parent="1">
                    <mxGeometry x="-490" y="450" width="80" height="80" as="geometry"/>
                </mxCell>
                <mxCell id="74" style="html=1;endArrow=none;endFill=0;exitX=0.948;exitY=0.729;exitDx=0;exitDy=0;exitPerimeter=0;entryX=0;entryY=0.5;entryDx=0;entryDy=0;startArrow=none;" edge="1" parent="1" source="86" target="69">
                    <mxGeometry relative="1" as="geometry">
                        <mxPoint x="-375.9200000000001" y="504.22" as="sourcePoint"/>
                        <mxPoint x="-300.00427124746193" y="470.00427124746193" as="targetPoint"/>
                        <Array as="points"/>
                    </mxGeometry>
                </mxCell>
                <mxCell id="75" value="0, n" style="text;html=1;resizable=0;autosize=1;align=center;verticalAlign=middle;points=[];fillColor=none;strokeColor=none;rounded=0;" vertex="1" parent="1">
                    <mxGeometry x="-420" y="161.5" width="40" height="20" as="geometry"/>
                </mxCell>
                <mxCell id="76" value="" style="edgeStyle=none;html=1;endArrow=none;endFill=0;exitX=0;exitY=0.5;exitDx=0;exitDy=0;" edge="1" parent="1" source="22" target="75">
                    <mxGeometry relative="1" as="geometry">
                        <mxPoint x="-330" y="162" as="sourcePoint"/>
                        <mxPoint x="-460" y="170" as="targetPoint"/>
                        <Array as="points"/>
                    </mxGeometry>
                </mxCell>
                <mxCell id="9" value="0, n" style="text;html=1;resizable=0;autosize=1;align=center;verticalAlign=middle;points=[];fillColor=none;strokeColor=none;rounded=0;" vertex="1" parent="1">
                    <mxGeometry x="-620" y="174.5" width="40" height="20" as="geometry"/>
                </mxCell>
                <mxCell id="77" value="" style="edgeStyle=none;html=1;endArrow=none;endFill=0;exitX=1.002;exitY=0.047;exitDx=0;exitDy=0;exitPerimeter=0;" edge="1" parent="1" source="4" target="9">
                    <mxGeometry relative="1" as="geometry">
                        <mxPoint x="-649.72" y="185.17499999999995" as="sourcePoint"/>
                        <mxPoint x="-530" y="180" as="targetPoint"/>
                    </mxGeometry>
                </mxCell>
                <mxCell id="78" value="0, n" style="text;html=1;resizable=0;autosize=1;align=center;verticalAlign=middle;points=[];fillColor=none;strokeColor=none;rounded=0;" vertex="1" parent="1">
                    <mxGeometry x="-610" y="244.5" width="40" height="20" as="geometry"/>
                </mxCell>
                <mxCell id="79" value="" style="edgeStyle=none;html=1;endArrow=none;endFill=0;entryX=0.821;entryY=1.167;entryDx=0;entryDy=0;entryPerimeter=0;" edge="1" parent="1" target="78">
                    <mxGeometry relative="1" as="geometry">
                        <mxPoint x="-530" y="250" as="sourcePoint"/>
                        <mxPoint x="-560" y="240" as="targetPoint"/>
                        <Array as="points"/>
                    </mxGeometry>
                </mxCell>
                <mxCell id="80" value="0, n" style="text;html=1;resizable=0;autosize=1;align=center;verticalAlign=middle;points=[];fillColor=none;strokeColor=none;rounded=0;" vertex="1" parent="1">
                    <mxGeometry x="-420" y="224.5" width="40" height="20" as="geometry"/>
                </mxCell>
                <mxCell id="81" value="" style="edgeStyle=none;html=1;endArrow=none;endFill=0;exitX=-0.021;exitY=0.82;exitDx=0;exitDy=0;exitPerimeter=0;entryX=1;entryY=0.5;entryDx=0;entryDy=0;" edge="1" parent="1" source="24" target="80">
                    <mxGeometry relative="1" as="geometry">
                        <mxPoint x="-460" y="250" as="targetPoint"/>
                        <mxPoint x="-332.94000000000005" y="220" as="sourcePoint"/>
                        <Array as="points"/>
                    </mxGeometry>
                </mxCell>
                <mxCell id="82" value="0, n" style="text;html=1;resizable=0;autosize=1;align=center;verticalAlign=middle;points=[];fillColor=none;strokeColor=none;rounded=0;" vertex="1" parent="1">
                    <mxGeometry x="-210" y="260" width="40" height="20" as="geometry"/>
                </mxCell>
                <mxCell id="83" value="" style="edgeStyle=none;html=1;endArrow=none;endFill=0;exitX=0.048;exitY=0.258;exitDx=0;exitDy=0;exitPerimeter=0;entryX=0.639;entryY=1.087;entryDx=0;entryDy=0;entryPerimeter=0;" edge="1" parent="1" source="8" target="82">
                    <mxGeometry relative="1" as="geometry">
                        <mxPoint x="-240.53999999999996" y="251.67499999999995" as="targetPoint"/>
                        <mxPoint x="-143.76" y="294.22" as="sourcePoint"/>
                        <Array as="points"/>
                    </mxGeometry>
                </mxCell>
                <mxCell id="84" value="0, n" style="text;html=1;resizable=0;autosize=1;align=center;verticalAlign=middle;points=[];fillColor=none;strokeColor=none;rounded=0;" vertex="1" parent="1">
                    <mxGeometry x="-130" y="400" width="40" height="20" as="geometry"/>
                </mxCell>
                <mxCell id="85" value="" style="edgeStyle=none;html=1;endArrow=none;endFill=0;entryX=1;entryY=0.5;entryDx=0;entryDy=0;exitX=0.746;exitY=0.972;exitDx=0;exitDy=0;exitPerimeter=0;" edge="1" parent="1" source="8" target="84">
                    <mxGeometry relative="1" as="geometry">
                        <mxPoint x="-160" y="486.5" as="targetPoint"/>
                        <mxPoint x="-85" y="361" as="sourcePoint"/>
                        <Array as="points">
                            <mxPoint x="-100" y="370"/>
                        </Array>
                    </mxGeometry>
                </mxCell>
                <mxCell id="86" value="0, n" style="text;html=1;resizable=0;autosize=1;align=center;verticalAlign=middle;points=[];fillColor=none;strokeColor=none;rounded=0;" vertex="1" parent="1">
                    <mxGeometry x="-380" y="439" width="40" height="20" as="geometry"/>
                </mxCell>
                <mxCell id="87" value="" style="html=1;endArrow=none;endFill=0;exitX=0.948;exitY=0.729;exitDx=0;exitDy=0;exitPerimeter=0;entryX=0;entryY=0.5;entryDx=0;entryDy=0;" edge="1" parent="1" source="73" target="86">
                    <mxGeometry relative="1" as="geometry">
                        <mxPoint x="-377.1600000000001" y="398.32000000000005" as="sourcePoint"/>
                        <mxPoint x="-300" y="486.5" as="targetPoint"/>
                        <Array as="points"/>
                    </mxGeometry>
                </mxCell>
                <mxCell id="88" value="0,n" style="text;html=1;resizable=0;autosize=1;align=center;verticalAlign=middle;points=[];fillColor=none;strokeColor=none;rounded=0;" vertex="1" parent="1">
                    <mxGeometry x="-510" y="565" width="30" height="20" as="geometry"/>
                </mxCell>
                <mxCell id="89" value="" style="html=1;endArrow=none;endFill=0;exitX=1;exitY=0.5;exitDx=0;exitDy=0;entryX=0;entryY=1;entryDx=0;entryDy=0;" edge="1" parent="1" source="93" target="88">
                    <mxGeometry relative="1" as="geometry">
                        <mxPoint x="-517.2" y="442.5" as="sourcePoint"/>
                        <mxPoint x="-441.2842712474619" y="408.2842712474619" as="targetPoint"/>
                        <Array as="points"/>
                    </mxGeometry>
                </mxCell>
                <mxCell id="91" value="Session" style="swimlane;fontStyle=1;align=center;verticalAlign=middle;childLayout=stackLayout;horizontal=1;startSize=29;horizontalStack=0;resizeParent=1;resizeParentMax=0;resizeLast=0;collapsible=0;marginBottom=0;html=1;" vertex="1" parent="1">
                    <mxGeometry x="-660" y="585" width="120" height="79" as="geometry"/>
                </mxCell>
                <mxCell id="92" value="id" style="text;html=1;strokeColor=none;fillColor=none;align=center;verticalAlign=middle;spacingLeft=4;spacingRight=4;overflow=hidden;rotatable=0;points=[[0,0.5],[1,0.5]];portConstraint=eastwest;" vertex="1" parent="91">
                    <mxGeometry y="29" width="120" height="25" as="geometry"/>
                </mxCell>
                <mxCell id="93" value="date_session" style="text;html=1;strokeColor=none;fillColor=none;align=center;verticalAlign=middle;spacingLeft=4;spacingRight=4;overflow=hidden;rotatable=0;points=[[0,0.5],[1,0.5]];portConstraint=eastwest;" vertex="1" parent="91">
                    <mxGeometry y="54" width="120" height="25" as="geometry"/>
                </mxCell>
                <mxCell id="95" value="correspond&lt;br&gt;--------------" style="ellipse;whiteSpace=wrap;html=1;align=center;" vertex="1" parent="1">
                    <mxGeometry x="-400" y="680" width="60" height="60" as="geometry"/>
                </mxCell>
                <mxCell id="97" style="edgeStyle=none;html=1;endArrow=none;endFill=0;entryX=1;entryY=0.5;entryDx=0;entryDy=0;startArrow=none;" edge="1" parent="1" source="100" target="24">
                    <mxGeometry relative="1" as="geometry">
                        <mxPoint x="-50" y="114" as="sourcePoint"/>
                        <mxPoint x="-188.03999999999996" y="182.17499999999995" as="targetPoint"/>
                        <Array as="points"/>
                    </mxGeometry>
                </mxCell>
                <mxCell id="98" value="Contient" style="ellipse;whiteSpace=wrap;html=1;align=center;" vertex="1" parent="1">
                    <mxGeometry x="-25" y="330" width="70" height="70" as="geometry"/>
                </mxCell>
                <mxCell id="99" value="" style="edgeStyle=none;html=1;endArrow=none;endFill=0;exitX=1.033;exitY=-0.026;exitDx=0;exitDy=0;exitPerimeter=0;entryX=0;entryY=1;entryDx=0;entryDy=0;startArrow=none;" edge="1" parent="1" source="108" target="98">
                    <mxGeometry relative="1" as="geometry">
                        <mxPoint x="-131.3699999999999" y="653.3499999999999" as="sourcePoint"/>
                        <mxPoint x="50" y="365" as="targetPoint"/>
                        <Array as="points"/>
                    </mxGeometry>
                </mxCell>
                <mxCell id="100" value="0, n" style="text;html=1;resizable=0;autosize=1;align=center;verticalAlign=middle;points=[];fillColor=none;strokeColor=none;rounded=0;" vertex="1" parent="1">
                    <mxGeometry x="-110" y="224.5" width="40" height="20" as="geometry"/>
                </mxCell>
                <mxCell id="101" value="" style="edgeStyle=none;html=1;endArrow=none;endFill=0;entryX=1;entryY=0.5;entryDx=0;entryDy=0;startArrow=none;" edge="1" parent="1" source="98" target="100">
                    <mxGeometry relative="1" as="geometry">
                        <mxPoint x="-16.449117897652513" y="342.0774311553678" as="sourcePoint"/>
                        <mxPoint x="-200" y="182.5" as="targetPoint"/>
                        <Array as="points"/>
                    </mxGeometry>
                </mxCell>
                <mxCell id="102" style="edgeStyle=none;html=1;endArrow=none;endFill=0;entryX=0.968;entryY=1.14;entryDx=0;entryDy=0;entryPerimeter=0;exitX=0;exitY=0.5;exitDx=0;exitDy=0;startArrow=none;" edge="1" parent="1" source="104" target="93">
                    <mxGeometry relative="1" as="geometry">
                        <mxPoint x="-391.96" y="690" as="sourcePoint"/>
                        <mxPoint x="-530" y="758.175" as="targetPoint"/>
                        <Array as="points"/>
                    </mxGeometry>
                </mxCell>
                <mxCell id="103" style="edgeStyle=none;html=1;endArrow=none;endFill=0;entryX=1.02;entryY=0.361;entryDx=0;entryDy=0;entryPerimeter=0;startArrow=none;" edge="1" parent="1" source="106" target="95">
                    <mxGeometry relative="1" as="geometry">
                        <mxPoint x="-245" y="671.83" as="sourcePoint"/>
                        <mxPoint x="-383.03999999999996" y="740.005" as="targetPoint"/>
                        <Array as="points"/>
                    </mxGeometry>
                </mxCell>
                <mxCell id="104" value="1,1" style="text;html=1;resizable=0;autosize=1;align=center;verticalAlign=middle;points=[];fillColor=none;strokeColor=none;rounded=0;" vertex="1" parent="1">
                    <mxGeometry x="-480" y="680" width="30" height="20" as="geometry"/>
                </mxCell>
                <mxCell id="105" value="" style="edgeStyle=none;html=1;endArrow=none;endFill=0;entryX=0.968;entryY=1.14;entryDx=0;entryDy=0;entryPerimeter=0;exitX=0;exitY=0.5;exitDx=0;exitDy=0;" edge="1" parent="1" source="95" target="104">
                    <mxGeometry relative="1" as="geometry">
                        <mxPoint x="-400" y="710" as="sourcePoint"/>
                        <mxPoint x="-543.8399999999999" y="667.5" as="targetPoint"/>
                        <Array as="points"/>
                    </mxGeometry>
                </mxCell>
                <mxCell id="106" value="0,n" style="text;html=1;resizable=0;autosize=1;align=center;verticalAlign=middle;points=[];fillColor=none;strokeColor=none;rounded=0;" vertex="1" parent="1">
                    <mxGeometry x="-310" y="670" width="30" height="20" as="geometry"/>
                </mxCell>
                <mxCell id="107" value="" style="edgeStyle=none;html=1;endArrow=none;endFill=0;entryX=1.02;entryY=0.361;entryDx=0;entryDy=0;entryPerimeter=0;" edge="1" parent="1" target="106">
                    <mxGeometry relative="1" as="geometry">
                        <mxPoint x="-245" y="671.8299999999999" as="sourcePoint"/>
                        <mxPoint x="-338.79999999999995" y="701.6600000000001" as="targetPoint"/>
                        <Array as="points"/>
                    </mxGeometry>
                </mxCell>
                <mxCell id="108" value="0,1" style="text;html=1;resizable=0;autosize=1;align=center;verticalAlign=middle;points=[];fillColor=none;strokeColor=none;rounded=0;" vertex="1" parent="1">
                    <mxGeometry x="-90" y="520" width="30" height="20" as="geometry"/>
                </mxCell>
                <mxCell id="109" value="" style="edgeStyle=none;html=1;endArrow=none;endFill=0;exitX=1.033;exitY=-0.026;exitDx=0;exitDy=0;exitPerimeter=0;entryX=0;entryY=1;entryDx=0;entryDy=0;" edge="1" parent="1" source="65" target="108">
                    <mxGeometry relative="1" as="geometry">
                        <mxPoint x="-131.3699999999999" y="653.3499999999999" as="sourcePoint"/>
                        <mxPoint x="-14.74873734152925" y="389.74873734152925" as="targetPoint"/>
                        <Array as="points"/>
                    </mxGeometry>
                </mxCell>
                <mxCell id="28" style="edgeStyle=none;html=1;endArrow=none;endFill=0;entryX=1;entryY=0.5;entryDx=0;entryDy=0;startArrow=none;" edge="1" parent="1" source="114" target="22">
                    <mxGeometry relative="1" as="geometry">
                        <mxPoint x="-60" y="104" as="sourcePoint"/>
                        <mxPoint x="-90" y="64" as="targetPoint"/>
                        <Array as="points"/>
                    </mxGeometry>
                </mxCell>
                <mxCell id="110" value="appartient" style="ellipse;whiteSpace=wrap;html=1;align=center;" vertex="1" parent="1">
                    <mxGeometry x="-130" y="30" width="35" height="31" as="geometry"/>
                </mxCell>
                <mxCell id="111" value="" style="edgeStyle=none;html=1;endArrow=none;endFill=0;entryX=0.943;entryY=0.834;entryDx=0;entryDy=0;entryPerimeter=0;exitX=-0.033;exitY=0.974;exitDx=0;exitDy=0;exitPerimeter=0;startArrow=none;" edge="1" parent="1" source="112" target="110">
                    <mxGeometry relative="1" as="geometry">
                        <mxPoint x="-120" y="154" as="sourcePoint"/>
                        <mxPoint x="-258.03999999999996" y="222.17499999999995" as="targetPoint"/>
                        <Array as="points"/>
                    </mxGeometry>
                </mxCell>
                <mxCell id="112" value="0, n" style="text;html=1;resizable=0;autosize=1;align=center;verticalAlign=middle;points=[];fillColor=none;strokeColor=none;rounded=0;" vertex="1" parent="1">
                    <mxGeometry x="-100" y="110" width="40" height="20" as="geometry"/>
                </mxCell>
                <mxCell id="113" value="" style="edgeStyle=none;html=1;endArrow=none;endFill=0;entryX=0.943;entryY=0.834;entryDx=0;entryDy=0;entryPerimeter=0;exitX=-0.033;exitY=0.974;exitDx=0;exitDy=0;exitPerimeter=0;" edge="1" parent="1" source="13" target="112">
                    <mxGeometry relative="1" as="geometry">
                        <mxPoint x="-58.299999999999955" y="120.35000000000002" as="sourcePoint"/>
                        <mxPoint x="-119.49499999999989" y="116.85400000000004" as="targetPoint"/>
                        <Array as="points"/>
                    </mxGeometry>
                </mxCell>
                <mxCell id="114" value="0,1" style="text;html=1;resizable=0;autosize=1;align=center;verticalAlign=middle;points=[];fillColor=none;strokeColor=none;rounded=0;" vertex="1" parent="1">
                    <mxGeometry x="-170" y="85" width="30" height="20" as="geometry"/>
                </mxCell>
                <mxCell id="115" value="" style="edgeStyle=none;html=1;endArrow=none;endFill=0;entryX=1;entryY=0.5;entryDx=0;entryDy=0;startArrow=none;" edge="1" parent="1" source="110" target="114">
                    <mxGeometry relative="1" as="geometry">
                        <mxPoint x="-124.10311679268398" y="57.10311679268398" as="sourcePoint"/>
                        <mxPoint x="-200" y="132.5" as="targetPoint"/>
                        <Array as="points"/>
                    </mxGeometry>
                </mxCell>
            </root>
        </mxGraphModel>
    </diagram>
</mxfile>